
<svg id="svg-el" width="355" height="1239" viewBox="0 0 355 1239" fill="none" xmlns="http://www.w3.org/2000/svg">
    <g id="canvas">
        <rect id="background" width="355" height="1239" fill="none"/>
        <g id="trail-path">
            <path id="trail-path" d="M312 30.9998C312 30.9998 305.149 29.1304 301.5 30.9998C299.042 32.2586 296.77 33.2515 296.5 35.9998C296.261 38.4347 298.519 39.2582 299.5 41.4998C304.196 52.2349 301.176 59.9862 299 71.4998C298.252 75.4552 295.024 77.7545 296.5 81.4998C297.115 83.0626 298.738 83.3406 299 84.9998C299.34 87.1561 297.249 87.9494 296.5 89.9998C294.22 96.235 292.44 101.746 296.5 107C297.344 108.092 298.875 108.125 299 109.5C299.138 111.019 297.388 111.26 296.5 112.5C293.01 117.368 291.968 121.028 291.5 127C291.083 132.313 294.197 135.216 293.5 140.5C293.128 143.318 291.925 144.689 291.5 147.5C291.004 150.782 291.03 152.714 291.5 156C291.754 157.782 292.009 158.768 292.5 160.5C293.123 162.699 294.082 163.753 294.5 166C294.963 168.495 294.6 169.963 294.5 172.5C294.203 180.006 292.821 184.105 291.5 191.5C290.941 194.629 290.3 196.335 290 199.5C289.686 202.804 290.551 204.726 290 208C289.487 211.044 288.147 212.481 287.5 215.5C286.272 221.228 286.941 224.669 287.5 230.5C287.858 234.239 287.837 236.428 289 240C289.866 242.658 293.089 243.925 292 246.5C290.94 249.004 288.049 248.053 285.5 249C282.779 250.01 280.648 250.328 278.5 251.5C276.352 252.671 275.148 253.328 273 254.5C270.852 255.671 269.717 252.794 267.5 253C265.839 253.154 264.759 253.405 263.5 254.5C262.312 255.533 262.089 256.54 261.5 258C260.897 259.493 261.254 260.577 260.5 262C259.914 263.105 259.596 263.899 258.5 264.5C257.13 265.25 255.968 263.966 254.5 264.5C252.683 265.16 252.421 266.69 251 268C248.959 269.88 247.782 270.921 245.5 272.5C241.047 275.58 237.954 276.314 233 278.5C225.535 281.793 221.414 284.017 213.5 286C211.754 286.437 210.646 286.272 209 287C206.963 287.9 206.317 289.214 204.5 290.5C195.854 296.614 189.163 296.669 179.5 301C177.347 301.965 174.087 301.142 174 303.5C173.928 305.431 176.069 305.7 177.5 307C179.351 308.681 180.442 309.579 182.5 311C184.373 312.294 185.527 312.863 187.5 314C189.242 315.003 190.707 314.96 192 316.5C192.842 317.503 193.216 318.221 193.5 319.5C193.754 320.643 193.206 321.366 193.5 322.5C193.92 324.126 195.245 324.499 196 326C197.764 329.506 198.703 332.464 197 336C195.921 338.239 193.469 338.211 192.5 340.5C191.735 342.307 191.88 343.541 192 345.5C192.293 350.294 195.505 352.131 197.5 356.5C199.171 360.162 199.9 362.306 201.5 366C203.028 369.529 203.019 372.06 205.5 375C206.838 376.586 208.369 376.759 209.5 378.5C210.919 380.685 210.002 382.593 211 385C213.011 389.853 218.445 389.981 220 395C221.098 398.544 218.557 401.082 220 404.5C221.396 407.807 224.847 407.813 226.5 411C229.017 415.853 224.829 419.794 226.5 425C227.595 428.413 229.808 429.619 231 433C232.057 435.998 232.582 437.822 232.5 441C232.428 443.795 231.489 445.247 231 448C230.037 453.414 228.319 456.629 229.5 462C229.991 464.232 230.921 465.289 231.5 467.5C232.445 471.108 231.561 473.389 232.5 477C233.293 480.053 235.548 481.346 235.5 484.5C235.462 486.969 234.044 488.091 233.5 490.5C232.296 495.833 232.881 499.067 233.5 504.5C233.656 505.872 233.513 506.708 234 508C235.023 510.716 238.357 510.331 239.5 513C240.349 514.982 239.547 516.391 240 518.5C240.861 522.514 243.429 524.037 244.5 528C245.17 530.479 245.12 531.96 245.5 534.5C246.113 538.596 245.027 541.358 247 545C248.977 548.65 252.732 548.523 255 552C256.823 554.794 256.372 557.087 258 560C261.167 565.665 272.928 565.707 270 571.5C269.312 572.861 267.95 573.043 267.5 574.5C266.75 576.925 270.174 577.967 270 580.5C269.85 582.678 268.021 583.38 267.5 585.5C266.217 590.717 271.975 593.127 272 598.5C272.02 602.952 267.882 605.19 269 609.5C269.775 612.488 272.495 613.08 273.5 616C274.707 619.508 272.912 621.837 273.5 625.5C274.566 632.139 276.69 635.838 281 641C282.593 642.908 284.379 643.282 285.5 645.5C286.571 647.62 285.668 649.275 286.5 651.5C288.051 655.646 292.33 655.9 294 660C295.407 663.455 295.072 665.77 295 669.5C294.938 672.648 293.598 674.377 294 677.5C294.402 680.629 296.832 681.85 297 685C297.161 688.027 295.562 689.521 295 692.5C293.587 699.983 297.147 704.693 295 712C294.038 715.272 292.308 716.687 291.5 720C290.39 724.553 292.28 727.379 291.5 732C290.852 735.836 289.442 737.725 288.5 741.5C287.777 744.398 288.068 746.21 287 749C286.375 750.631 285.581 751.353 285 753C284.081 755.604 284.823 757.364 284 760C282.611 764.446 280.106 766.14 277.5 770C275.772 772.558 274.517 773.811 273 776.5C271.324 779.47 270.81 781.352 269.5 784.5C267.172 790.091 268.034 794.482 264 799C262.617 800.548 261.914 801.697 260 802.5C257.659 803.481 255.07 800.505 253.5 802.5C251.59 804.926 256.285 806.432 258 809C261.069 813.596 265.27 815.478 265.5 821C265.616 823.793 263.511 825.247 264 828C264.54 831.04 266.895 831.863 268.5 834.5C270.77 838.229 271.879 840.445 273.5 844.5C274.944 848.112 274.583 850.614 276.5 854C278.274 857.133 281.171 857.653 282.5 861C283.235 862.851 282.751 864.155 283.5 866C285.058 869.838 288.869 869.948 291 873.5C292.906 876.677 292.677 879.039 294 882.5C294.906 884.871 295.188 886.327 296.5 888.5C298.285 891.457 300.884 891.947 302.5 895C303.918 897.679 304.126 899.492 304.5 902.5C304.837 905.213 304.202 906.782 304.5 909.5C305.133 915.271 307.415 918.081 309.5 923.5C310.633 926.444 312.044 927.878 312.5 931C312.782 932.932 312.14 934.081 312.5 936C313.349 940.529 317.836 941.202 319.5 945.5C320.787 948.822 322.048 951.094 321 954.5C320.615 955.752 319.642 956.198 319.5 957.5C319.253 959.763 322.734 960.235 322.5 962.5C322.299 964.442 320.373 964.753 319.5 966.5C317.317 970.866 320.718 974.273 319.5 979C318.758 981.88 317.383 983.16 316.5 986C315.613 988.852 315.896 990.651 315 993.5C314.368 995.506 313.734 996.529 313 998.5C311.922 1001.39 311.012 1002.96 310.5 1006C309.949 1009.27 310.8 1011.19 310.5 1014.5C309.99 1020.11 308.754 1023.14 307 1028.5C305.961 1031.67 304.41 1033.19 304 1036.5C303.784 1038.24 303.289 1039.39 304 1041C304.395 1041.89 305.325 1042.04 305.5 1043C305.734 1044.29 304.486 1044.78 304 1046C301.38 1052.55 305.298 1056.95 305.5 1064C305.606 1067.71 305.232 1069.8 305.5 1073.5C305.784 1077.44 306.43 1079.59 307 1083.5C307.398 1086.23 308.911 1087.89 308 1090.5C307.445 1092.09 306.096 1092.43 305.5 1094C304.668 1096.19 305.5 1097.66 305.5 1100C305.5 1102.73 306.572 1104.49 305.5 1107C304.361 1109.67 299.995 1109.1 300 1112C300.003 1113.75 301.8 1114.26 302 1116C302.262 1118.27 300.365 1119.24 300 1121.5C299.688 1123.43 299.572 1124.59 300 1126.5C300.536 1128.89 301.95 1129.79 303 1132C308.262 1143.08 307.779 1150.74 308 1163C308.028 1164.56 308.342 1165.48 308 1167C307.559 1168.96 306.602 1169.82 305.5 1171.5C304.279 1173.36 303.087 1174.06 302 1176C297.564 1183.93 305.5 1199 305.5 1199" stroke="black"/>
        </g>
        <g id="camera-path">
            <path id="trail-path" d="M312 30.9998C312 30.9998 305.149 29.1304 301.5 30.9998C299.042 32.2586 296.77 33.2515 296.5 35.9998C296.261 38.4347 298.519 39.2582 299.5 41.4998C304.196 52.2349 301.176 59.9862 299 71.4998C298.252 75.4552 295.024 77.7545 296.5 81.4998C297.115 83.0626 298.738 83.3406 299 84.9998C299.34 87.1561 297.249 87.9494 296.5 89.9998C294.22 96.235 292.44 101.746 296.5 107C297.344 108.092 298.875 108.125 299 109.5C299.138 111.019 297.388 111.26 296.5 112.5C293.01 117.368 291.968 121.028 291.5 127C291.083 132.313 294.197 135.216 293.5 140.5C293.128 143.318 291.925 144.689 291.5 147.5C291.004 150.782 291.03 152.714 291.5 156C291.754 157.782 292.009 158.768 292.5 160.5C293.123 162.699 294.082 163.753 294.5 166C294.963 168.495 294.6 169.963 294.5 172.5C294.203 180.006 292.821 184.105 291.5 191.5C290.941 194.629 290.3 196.335 290 199.5C289.686 202.804 290.551 204.726 290 208C289.487 211.044 288.147 212.481 287.5 215.5C286.272 221.228 286.941 224.669 287.5 230.5C287.858 234.239 287.837 236.428 289 240C289.866 242.658 293.089 243.925 292 246.5C290.94 249.004 288.049 248.053 285.5 249C282.779 250.01 280.648 250.328 278.5 251.5C276.352 252.671 275.148 253.328 273 254.5C270.852 255.671 269.717 252.794 267.5 253C265.839 253.154 264.759 253.405 263.5 254.5C262.312 255.533 262.089 256.54 261.5 258C260.897 259.493 261.254 260.577 260.5 262C259.914 263.105 259.596 263.899 258.5 264.5C257.13 265.25 255.968 263.966 254.5 264.5C252.683 265.16 252.421 266.69 251 268C248.959 269.88 247.782 270.921 245.5 272.5C241.047 275.58 237.954 276.314 233 278.5C225.535 281.793 221.414 284.017 213.5 286C211.754 286.437 210.646 286.272 209 287C206.963 287.9 206.317 289.214 204.5 290.5C195.854 296.614 189.163 296.669 179.5 301C177.347 301.965 174.087 301.142 174 303.5C173.928 305.431 176.069 305.7 177.5 307C179.351 308.681 180.442 309.579 182.5 311C184.373 312.294 185.527 312.863 187.5 314C189.242 315.003 190.707 314.96 192 316.5C192.842 317.503 193.216 318.221 193.5 319.5C193.754 320.643 193.206 321.366 193.5 322.5C193.92 324.126 195.245 324.499 196 326C197.764 329.506 198.703 332.464 197 336C195.921 338.239 193.469 338.211 192.5 340.5C191.735 342.307 191.88 343.541 192 345.5C192.293 350.294 195.505 352.131 197.5 356.5C199.171 360.162 199.9 362.306 201.5 366C203.028 369.529 203.019 372.06 205.5 375C206.838 376.586 208.369 376.759 209.5 378.5C210.919 380.685 210.002 382.593 211 385C213.011 389.853 218.445 389.981 220 395C221.098 398.544 218.557 401.082 220 404.5C221.396 407.807 224.847 407.813 226.5 411C229.017 415.853 224.829 419.794 226.5 425C227.595 428.413 229.808 429.619 231 433C232.057 435.998 232.582 437.822 232.5 441C232.428 443.795 231.489 445.247 231 448C230.037 453.414 228.319 456.629 229.5 462C229.991 464.232 230.921 465.289 231.5 467.5C232.445 471.108 231.561 473.389 232.5 477C233.293 480.053 235.548 481.346 235.5 484.5C235.462 486.969 234.044 488.091 233.5 490.5C232.296 495.833 232.881 499.067 233.5 504.5C233.656 505.872 233.513 506.708 234 508C235.023 510.716 238.357 510.331 239.5 513C240.349 514.982 239.547 516.391 240 518.5C240.861 522.514 243.429 524.037 244.5 528C245.17 530.479 245.12 531.96 245.5 534.5C246.113 538.596 245.027 541.358 247 545C248.977 548.65 252.732 548.523 255 552C256.823 554.794 256.372 557.087 258 560C261.167 565.665 272.928 565.707 270 571.5C269.312 572.861 267.95 573.043 267.5 574.5C266.75 576.925 270.174 577.967 270 580.5C269.85 582.678 268.021 583.38 267.5 585.5C266.217 590.717 271.975 593.127 272 598.5C272.02 602.952 267.882 605.19 269 609.5C269.775 612.488 272.495 613.08 273.5 616C274.707 619.508 272.912 621.837 273.5 625.5C274.566 632.139 276.69 635.838 281 641C282.593 642.908 284.379 643.282 285.5 645.5C286.571 647.62 285.668 649.275 286.5 651.5C288.051 655.646 292.33 655.9 294 660C295.407 663.455 295.072 665.77 295 669.5C294.938 672.648 293.598 674.377 294 677.5C294.402 680.629 296.832 681.85 297 685C297.161 688.027 295.562 689.521 295 692.5C293.587 699.983 297.147 704.693 295 712C294.038 715.272 292.308 716.687 291.5 720C290.39 724.553 292.28 727.379 291.5 732C290.852 735.836 289.442 737.725 288.5 741.5C287.777 744.398 288.068 746.21 287 749C286.375 750.631 285.581 751.353 285 753C284.081 755.604 284.823 757.364 284 760C282.611 764.446 280.106 766.14 277.5 770C275.772 772.558 274.517 773.811 273 776.5C271.324 779.47 270.81 781.352 269.5 784.5C267.172 790.091 268.034 794.482 264 799C262.617 800.548 261.914 801.697 260 802.5C257.659 803.481 255.07 800.505 253.5 802.5C251.59 804.926 256.285 806.432 258 809C261.069 813.596 265.27 815.478 265.5 821C265.616 823.793 263.511 825.247 264 828C264.54 831.04 266.895 831.863 268.5 834.5C270.77 838.229 271.879 840.445 273.5 844.5C274.944 848.112 274.583 850.614 276.5 854C278.274 857.133 281.171 857.653 282.5 861C283.235 862.851 282.751 864.155 283.5 866C285.058 869.838 288.869 869.948 291 873.5C292.906 876.677 292.677 879.039 294 882.5C294.906 884.871 295.188 886.327 296.5 888.5C298.285 891.457 300.884 891.947 302.5 895C303.918 897.679 304.126 899.492 304.5 902.5C304.837 905.213 304.202 906.782 304.5 909.5C305.133 915.271 307.415 918.081 309.5 923.5C310.633 926.444 312.044 927.878 312.5 931C312.782 932.932 312.14 934.081 312.5 936C313.349 940.529 317.836 941.202 319.5 945.5C320.787 948.822 322.048 951.094 321 954.5C320.615 955.752 319.642 956.198 319.5 957.5C319.253 959.763 322.734 960.235 322.5 962.5C322.299 964.442 320.373 964.753 319.5 966.5C317.317 970.866 320.718 974.273 319.5 979C318.758 981.88 317.383 983.16 316.5 986C315.613 988.852 315.896 990.651 315 993.5C314.368 995.506 313.734 996.529 313 998.5C311.922 1001.39 311.012 1002.96 310.5 1006C309.949 1009.27 310.8 1011.19 310.5 1014.5C309.99 1020.11 308.754 1023.14 307 1028.5C305.961 1031.67 304.41 1033.19 304 1036.5C303.784 1038.24 303.289 1039.39 304 1041C304.395 1041.89 305.325 1042.04 305.5 1043C305.734 1044.29 304.486 1044.78 304 1046C301.38 1052.55 305.298 1056.95 305.5 1064C305.606 1067.71 305.232 1069.8 305.5 1073.5C305.784 1077.44 306.43 1079.59 307 1083.5C307.398 1086.23 308.911 1087.89 308 1090.5C307.445 1092.09 306.096 1092.43 305.5 1094C304.668 1096.19 305.5 1097.66 305.5 1100C305.5 1102.73 306.572 1104.49 305.5 1107C304.361 1109.67 299.995 1109.1 300 1112C300.003 1113.75 301.8 1114.26 302 1116C302.262 1118.27 300.365 1119.24 300 1121.5C299.688 1123.43 299.572 1124.59 300 1126.5C300.536 1128.89 301.95 1129.79 303 1132C308.262 1143.08 307.779 1150.74 308 1163C308.028 1164.56 308.342 1165.48 308 1167C307.559 1168.96 306.602 1169.82 305.5 1171.5C304.279 1173.36 303.087 1174.06 302 1176C297.564 1183.93 305.5 1199 305.5 1199" stroke="black"/>
        </g>
        <g id="locations">
            <g id="Group 38">
                <circle id="Ellipse 11" cx="308" cy="1198" r="5" fill="#C4C4C4"/>
                <path id="Moscow" d="M229.92 1191.62L233.639 1200.91L237.358 1191.62H239.303V1203H237.803V1198.57L237.944 1193.79L234.209 1203H233.061L229.334 1193.81L229.483 1198.57V1203H227.983V1191.62H229.92ZM241.502 1198.7C241.502 1197.87 241.664 1197.12 241.987 1196.46C242.315 1195.8 242.768 1195.29 243.346 1194.93C243.929 1194.57 244.593 1194.39 245.338 1194.39C246.489 1194.39 247.419 1194.79 248.127 1195.59C248.841 1196.38 249.197 1197.44 249.197 1198.77V1198.87C249.197 1199.69 249.039 1200.43 248.721 1201.09C248.408 1201.74 247.958 1202.24 247.369 1202.61C246.786 1202.97 246.114 1203.16 245.354 1203.16C244.208 1203.16 243.278 1202.76 242.565 1201.96C241.856 1201.16 241.502 1200.11 241.502 1198.8V1198.7ZM242.955 1198.87C242.955 1199.8 243.171 1200.56 243.604 1201.12C244.041 1201.69 244.625 1201.98 245.354 1201.98C246.088 1201.98 246.671 1201.69 247.104 1201.12C247.536 1200.54 247.752 1199.73 247.752 1198.7C247.752 1197.77 247.531 1197.02 247.088 1196.45C246.651 1195.87 246.067 1195.58 245.338 1195.58C244.625 1195.58 244.049 1195.86 243.612 1196.43C243.174 1197 242.955 1197.81 242.955 1198.87ZM256.092 1200.76C256.092 1200.37 255.943 1200.07 255.647 1199.85C255.355 1199.63 254.842 1199.45 254.107 1199.29C253.378 1199.13 252.798 1198.95 252.365 1198.73C251.938 1198.51 251.621 1198.25 251.412 1197.95C251.209 1197.64 251.107 1197.28 251.107 1196.87C251.107 1196.17 251.399 1195.59 251.982 1195.11C252.571 1194.63 253.321 1194.39 254.232 1194.39C255.191 1194.39 255.967 1194.64 256.561 1195.13C257.16 1195.63 257.459 1196.26 257.459 1197.03H256.006C256.006 1196.64 255.837 1196.29 255.498 1196.01C255.165 1195.72 254.743 1195.58 254.232 1195.58C253.706 1195.58 253.295 1195.69 252.998 1195.92C252.701 1196.15 252.553 1196.45 252.553 1196.82C252.553 1197.17 252.691 1197.43 252.967 1197.61C253.243 1197.79 253.74 1197.96 254.459 1198.12C255.183 1198.28 255.769 1198.47 256.217 1198.7C256.665 1198.92 256.996 1199.19 257.209 1199.51C257.428 1199.82 257.537 1200.2 257.537 1200.66C257.537 1201.41 257.235 1202.02 256.631 1202.48C256.027 1202.93 255.243 1203.16 254.279 1203.16C253.602 1203.16 253.003 1203.04 252.482 1202.8C251.962 1202.56 251.553 1202.22 251.256 1201.8C250.964 1201.36 250.818 1200.9 250.818 1200.4H252.264C252.29 1200.88 252.482 1201.27 252.842 1201.55C253.206 1201.84 253.686 1201.98 254.279 1201.98C254.826 1201.98 255.264 1201.87 255.592 1201.65C255.925 1201.42 256.092 1201.13 256.092 1200.76ZM262.971 1201.98C263.486 1201.98 263.937 1201.82 264.322 1201.51C264.708 1201.2 264.921 1200.8 264.963 1200.34H266.33C266.304 1200.82 266.137 1201.28 265.83 1201.72C265.523 1202.16 265.111 1202.51 264.596 1202.77C264.085 1203.03 263.544 1203.16 262.971 1203.16C261.82 1203.16 260.903 1202.77 260.221 1202.01C259.544 1201.24 259.205 1200.18 259.205 1198.85V1198.61C259.205 1197.79 259.356 1197.05 259.658 1196.41C259.96 1195.77 260.393 1195.28 260.955 1194.92C261.523 1194.57 262.192 1194.39 262.963 1194.39C263.911 1194.39 264.697 1194.67 265.322 1195.24C265.952 1195.81 266.288 1196.55 266.33 1197.45H264.963C264.921 1196.91 264.713 1196.46 264.338 1196.11C263.968 1195.76 263.51 1195.58 262.963 1195.58C262.228 1195.58 261.658 1195.84 261.252 1196.38C260.851 1196.9 260.65 1197.66 260.65 1198.66V1198.94C260.65 1199.91 260.851 1200.66 261.252 1201.19C261.653 1201.71 262.226 1201.98 262.971 1201.98ZM267.732 1198.7C267.732 1197.87 267.894 1197.12 268.217 1196.46C268.545 1195.8 268.998 1195.29 269.576 1194.93C270.159 1194.57 270.823 1194.39 271.568 1194.39C272.719 1194.39 273.649 1194.79 274.357 1195.59C275.071 1196.38 275.427 1197.44 275.427 1198.77V1198.87C275.427 1199.69 275.269 1200.43 274.951 1201.09C274.638 1201.74 274.188 1202.24 273.599 1202.61C273.016 1202.97 272.344 1203.16 271.584 1203.16C270.438 1203.16 269.508 1202.76 268.795 1201.96C268.086 1201.16 267.732 1200.11 267.732 1198.8V1198.7ZM269.185 1198.87C269.185 1199.8 269.401 1200.56 269.834 1201.12C270.271 1201.69 270.855 1201.98 271.584 1201.98C272.318 1201.98 272.901 1201.69 273.334 1201.12C273.766 1200.54 273.982 1199.73 273.982 1198.7C273.982 1197.77 273.761 1197.02 273.318 1196.45C272.881 1195.87 272.297 1195.58 271.568 1195.58C270.855 1195.58 270.279 1195.86 269.842 1196.43C269.404 1197 269.185 1197.81 269.185 1198.87ZM284.884 1201.01L286.509 1194.55H287.955L285.494 1203H284.322L282.267 1196.59L280.267 1203H279.095L276.642 1194.55H278.08L279.744 1200.88L281.712 1194.55H282.877L284.884 1201.01Z" fill="black"/>
            </g>
            <g id="Group 37">
                <circle id="Ellipse 10" cx="308" cy="1140" r="5" fill="#C4C4C4"/>
                <path id="Chernaya Gyyaz" d="M176.522 1141.39C176.382 1142.59 175.937 1143.52 175.187 1144.18C174.442 1144.83 173.45 1145.16 172.21 1145.16C170.866 1145.16 169.788 1144.67 168.976 1143.71C168.168 1142.75 167.765 1141.46 167.765 1139.84V1138.75C167.765 1137.69 167.952 1136.76 168.327 1135.96C168.707 1135.16 169.244 1134.54 169.937 1134.12C170.629 1133.68 171.431 1133.47 172.343 1133.47C173.551 1133.47 174.52 1133.81 175.249 1134.48C175.978 1135.16 176.403 1136.09 176.522 1137.28H175.015C174.884 1136.38 174.601 1135.72 174.163 1135.31C173.731 1134.91 173.124 1134.7 172.343 1134.7C171.384 1134.7 170.632 1135.06 170.085 1135.77C169.543 1136.47 169.272 1137.48 169.272 1138.79V1139.89C169.272 1141.12 169.53 1142.11 170.046 1142.84C170.562 1143.57 171.283 1143.93 172.21 1143.93C173.043 1143.93 173.681 1143.74 174.124 1143.37C174.572 1142.99 174.869 1142.33 175.015 1141.39H176.522ZM179.956 1137.57C180.597 1136.78 181.43 1136.39 182.456 1136.39C184.242 1136.39 185.143 1137.4 185.159 1139.41V1145H183.714V1139.41C183.709 1138.8 183.568 1138.35 183.292 1138.05C183.021 1137.76 182.597 1137.62 182.018 1137.62C181.55 1137.62 181.138 1137.74 180.784 1137.99C180.43 1138.24 180.154 1138.57 179.956 1138.98V1145H178.511V1133H179.956V1137.57ZM190.991 1145.16C189.845 1145.16 188.913 1144.78 188.194 1144.03C187.475 1143.28 187.116 1142.27 187.116 1141.01V1140.74C187.116 1139.9 187.275 1139.16 187.592 1138.5C187.915 1137.84 188.363 1137.32 188.936 1136.95C189.514 1136.58 190.139 1136.39 190.811 1136.39C191.91 1136.39 192.764 1136.75 193.374 1137.48C193.983 1138.2 194.288 1139.24 194.288 1140.59V1141.19H188.561C188.582 1142.02 188.824 1142.7 189.288 1143.21C189.757 1143.72 190.35 1143.98 191.069 1143.98C191.579 1143.98 192.012 1143.87 192.366 1143.66C192.72 1143.46 193.03 1143.18 193.296 1142.84L194.178 1143.52C193.47 1144.61 192.408 1145.16 190.991 1145.16ZM190.811 1137.58C190.228 1137.58 189.738 1137.79 189.342 1138.22C188.947 1138.64 188.702 1139.23 188.608 1140H192.842V1139.89C192.801 1139.16 192.603 1138.59 192.249 1138.19C191.895 1137.78 191.415 1137.58 190.811 1137.58ZM200.213 1137.84C199.995 1137.81 199.758 1137.79 199.502 1137.79C198.555 1137.79 197.911 1138.19 197.573 1139V1145H196.127V1136.55H197.534L197.557 1137.52C198.031 1136.77 198.703 1136.39 199.573 1136.39C199.854 1136.39 200.068 1136.43 200.213 1136.5V1137.84ZM203.077 1136.55L203.123 1137.61C203.769 1136.8 204.613 1136.39 205.655 1136.39C207.441 1136.39 208.342 1137.4 208.358 1139.41V1145H206.912V1139.41C206.907 1138.8 206.767 1138.35 206.491 1138.05C206.22 1137.76 205.795 1137.62 205.217 1137.62C204.748 1137.62 204.337 1137.74 203.983 1137.99C203.629 1138.24 203.353 1138.57 203.155 1138.98V1145H201.709V1136.55H203.077ZM215.916 1145C215.833 1144.83 215.765 1144.54 215.713 1144.11C215.041 1144.81 214.239 1145.16 213.307 1145.16C212.474 1145.16 211.789 1144.92 211.252 1144.45C210.721 1143.98 210.455 1143.38 210.455 1142.66C210.455 1141.78 210.789 1141.09 211.455 1140.61C212.127 1140.12 213.07 1139.88 214.283 1139.88H215.69V1139.21C215.69 1138.71 215.539 1138.3 215.237 1138.01C214.934 1137.71 214.489 1137.55 213.901 1137.55C213.385 1137.55 212.953 1137.68 212.604 1137.95C212.255 1138.21 212.08 1138.52 212.08 1138.89H210.627C210.627 1138.47 210.776 1138.06 211.072 1137.67C211.375 1137.28 211.781 1136.96 212.291 1136.73C212.807 1136.51 213.372 1136.39 213.987 1136.39C214.961 1136.39 215.724 1136.64 216.276 1137.12C216.828 1137.61 217.114 1138.28 217.135 1139.13V1143.02C217.135 1143.8 217.234 1144.42 217.432 1144.88V1145H215.916ZM213.518 1143.9C213.971 1143.9 214.401 1143.78 214.807 1143.55C215.213 1143.31 215.507 1143.01 215.69 1142.63V1140.9H214.557C212.786 1140.9 211.901 1141.42 211.901 1142.45C211.901 1142.91 212.052 1143.26 212.354 1143.52C212.656 1143.77 213.044 1143.9 213.518 1143.9ZM222.201 1142.88L224.17 1136.55H225.717L222.318 1146.3C221.792 1147.71 220.956 1148.41 219.811 1148.41L219.537 1148.39L218.998 1148.29V1147.12L219.389 1147.15C219.878 1147.15 220.259 1147.05 220.529 1146.85C220.805 1146.65 221.032 1146.29 221.209 1145.77L221.529 1144.91L218.514 1136.55H220.092L222.201 1142.88ZM232.268 1145C232.184 1144.83 232.116 1144.54 232.064 1144.11C231.393 1144.81 230.59 1145.16 229.658 1145.16C228.825 1145.16 228.14 1144.92 227.603 1144.45C227.072 1143.98 226.807 1143.38 226.807 1142.66C226.807 1141.78 227.14 1141.09 227.807 1140.61C228.478 1140.12 229.421 1139.88 230.635 1139.88H232.041V1139.21C232.041 1138.71 231.89 1138.3 231.588 1138.01C231.286 1137.71 230.84 1137.55 230.252 1137.55C229.736 1137.55 229.304 1137.68 228.955 1137.95C228.606 1138.21 228.432 1138.52 228.432 1138.89H226.978C226.978 1138.47 227.127 1138.06 227.424 1137.67C227.726 1137.28 228.132 1136.96 228.643 1136.73C229.158 1136.51 229.723 1136.39 230.338 1136.39C231.312 1136.39 232.075 1136.64 232.627 1137.12C233.179 1137.61 233.465 1138.28 233.486 1139.13V1143.02C233.486 1143.8 233.585 1144.42 233.783 1144.88V1145H232.268ZM229.869 1143.9C230.322 1143.9 230.752 1143.78 231.158 1143.55C231.564 1143.31 231.859 1143.01 232.041 1142.63V1140.9H230.908C229.137 1140.9 228.252 1141.42 228.252 1142.45C228.252 1142.91 228.403 1143.26 228.705 1143.52C229.007 1143.77 229.395 1143.9 229.869 1143.9ZM248.666 1143.51C248.28 1144.06 247.741 1144.47 247.048 1144.75C246.361 1145.02 245.559 1145.16 244.642 1145.16C243.715 1145.16 242.892 1144.94 242.173 1144.51C241.455 1144.07 240.897 1143.45 240.502 1142.65C240.111 1141.85 239.91 1140.92 239.9 1139.86V1138.87C239.9 1137.15 240.298 1135.83 241.095 1134.88C241.897 1133.94 243.022 1133.47 244.47 1133.47C245.658 1133.47 246.614 1133.77 247.338 1134.38C248.061 1134.99 248.504 1135.85 248.666 1136.96H247.166C246.884 1135.46 245.989 1134.7 244.478 1134.7C243.473 1134.7 242.71 1135.06 242.189 1135.77C241.673 1136.47 241.413 1137.49 241.408 1138.83V1139.76C241.408 1141.03 241.699 1142.05 242.283 1142.8C242.866 1143.55 243.655 1143.93 244.65 1143.93C245.213 1143.93 245.705 1143.87 246.127 1143.74C246.548 1143.62 246.897 1143.41 247.173 1143.11V1140.55H244.541V1139.34H248.666V1143.51ZM253.872 1142.88L255.841 1136.55H257.388L253.99 1146.3C253.464 1147.71 252.628 1148.41 251.482 1148.41L251.208 1148.39L250.669 1148.29V1147.12L251.06 1147.15C251.55 1147.15 251.93 1147.05 252.201 1146.85C252.477 1146.65 252.703 1146.29 252.88 1145.77L253.201 1144.91L250.185 1136.55H251.763L253.872 1142.88ZM261.611 1142.88L263.579 1136.55H265.126L261.728 1146.3C261.202 1147.71 260.366 1148.41 259.22 1148.41L258.947 1148.39L258.408 1148.29V1147.12L258.798 1147.15C259.288 1147.15 259.668 1147.05 259.939 1146.85C260.215 1146.65 260.441 1146.29 260.618 1145.77L260.939 1144.91L257.923 1136.55H259.501L261.611 1142.88ZM271.677 1145C271.594 1144.83 271.526 1144.54 271.474 1144.11C270.802 1144.81 270 1145.16 269.067 1145.16C268.234 1145.16 267.549 1144.92 267.013 1144.45C266.482 1143.98 266.216 1143.38 266.216 1142.66C266.216 1141.78 266.549 1141.09 267.216 1140.61C267.888 1140.12 268.831 1139.88 270.044 1139.88H271.45V1139.21C271.45 1138.71 271.299 1138.3 270.997 1138.01C270.695 1137.71 270.25 1137.55 269.661 1137.55C269.146 1137.55 268.713 1137.68 268.364 1137.95C268.015 1138.21 267.841 1138.52 267.841 1138.89H266.388C266.388 1138.47 266.536 1138.06 266.833 1137.67C267.135 1137.28 267.541 1136.96 268.052 1136.73C268.567 1136.51 269.133 1136.39 269.747 1136.39C270.721 1136.39 271.484 1136.64 272.036 1137.12C272.588 1137.61 272.875 1138.28 272.896 1139.13V1143.02C272.896 1143.8 272.995 1144.42 273.192 1144.88V1145H271.677ZM269.278 1143.9C269.732 1143.9 270.161 1143.78 270.567 1143.55C270.974 1143.31 271.268 1143.01 271.45 1142.63V1140.9H270.317C268.547 1140.9 267.661 1141.42 267.661 1142.45C267.661 1142.91 267.812 1143.26 268.114 1143.52C268.416 1143.77 268.804 1143.9 269.278 1143.9ZM276.681 1143.82H281.626V1145H274.915V1143.94L279.579 1137.74H274.985V1136.55H281.392V1137.57L276.681 1143.82Z" fill="black"/>
            </g>
            <g id="Group 36">
                <circle id="Ellipse 9" cx="252" cy="802" r="5" fill="#C4C4C4"/>
                <path id="Torzhok" d="M183.551 796.859H179.895V807H178.403V796.859H174.754V795.625H183.551V796.859ZM184.008 802.695C184.008 801.867 184.17 801.122 184.493 800.461C184.821 799.799 185.274 799.289 185.852 798.93C186.435 798.57 187.099 798.391 187.844 798.391C188.995 798.391 189.925 798.789 190.633 799.586C191.347 800.383 191.703 801.443 191.703 802.766V802.867C191.703 803.69 191.545 804.43 191.227 805.086C190.914 805.737 190.464 806.245 189.875 806.609C189.292 806.974 188.62 807.156 187.86 807.156C186.714 807.156 185.784 806.758 185.071 805.961C184.362 805.164 184.008 804.109 184.008 802.797V802.695ZM185.461 802.867C185.461 803.805 185.677 804.557 186.11 805.125C186.547 805.693 187.131 805.977 187.86 805.977C188.594 805.977 189.177 805.69 189.61 805.117C190.042 804.539 190.258 803.732 190.258 802.695C190.258 801.768 190.037 801.018 189.594 800.445C189.157 799.867 188.573 799.578 187.844 799.578C187.131 799.578 186.555 799.862 186.118 800.43C185.68 800.997 185.461 801.81 185.461 802.867ZM197.762 799.844C197.543 799.807 197.306 799.789 197.051 799.789C196.103 799.789 195.46 800.193 195.121 801V807H193.676V798.547H195.082L195.106 799.523C195.58 798.768 196.251 798.391 197.121 798.391C197.402 798.391 197.616 798.427 197.762 798.5V799.844ZM200.617 805.82H205.562V807H198.852V805.938L203.516 799.742H198.922V798.547H205.328V799.57L200.617 805.82ZM208.801 799.57C209.441 798.784 210.275 798.391 211.301 798.391C213.087 798.391 213.988 799.398 214.004 801.414V807H212.558V801.406C212.553 800.797 212.413 800.346 212.137 800.055C211.866 799.763 211.441 799.617 210.863 799.617C210.394 799.617 209.983 799.742 209.629 799.992C209.275 800.242 208.999 800.57 208.801 800.977V807H207.355V795H208.801V799.57ZM215.945 802.695C215.945 801.867 216.106 801.122 216.429 800.461C216.757 799.799 217.211 799.289 217.789 798.93C218.372 798.57 219.036 798.391 219.781 798.391C220.932 798.391 221.862 798.789 222.57 799.586C223.284 800.383 223.64 801.443 223.64 802.766V802.867C223.64 803.69 223.481 804.43 223.164 805.086C222.851 805.737 222.401 806.245 221.812 806.609C221.229 806.974 220.557 807.156 219.797 807.156C218.651 807.156 217.721 806.758 217.007 805.961C216.299 805.164 215.945 804.109 215.945 802.797V802.695ZM217.398 802.867C217.398 803.805 217.614 804.557 218.047 805.125C218.484 805.693 219.067 805.977 219.797 805.977C220.531 805.977 221.114 805.69 221.547 805.117C221.979 804.539 222.195 803.732 222.195 802.695C222.195 801.768 221.974 801.018 221.531 800.445C221.093 799.867 220.51 799.578 219.781 799.578C219.067 799.578 218.492 799.862 218.054 800.43C217.617 800.997 217.398 801.81 217.398 802.867ZM227.972 803.086L227.066 804.031V807H225.621V795H227.066V802.258L227.839 801.328L230.472 798.547H232.23L228.941 802.078L232.613 807H230.917L227.972 803.086Z" fill="black"/>
            </g>
            <g id="Group 35">
                <circle id="Ellipse 8" cx="274" cy="724" r="5" fill="#C4C4C4"/>
                <path id="Pochinok" d="M187.635 724.547V729H186.135V717.625H190.331C191.575 717.625 192.549 717.943 193.252 718.578C193.961 719.214 194.315 720.055 194.315 721.102C194.315 722.206 193.969 723.057 193.276 723.656C192.588 724.25 191.601 724.547 190.315 724.547H187.635ZM187.635 723.32H190.331C191.133 723.32 191.747 723.133 192.174 722.758C192.601 722.378 192.815 721.831 192.815 721.117C192.815 720.44 192.601 719.898 192.174 719.492C191.747 719.086 191.161 718.875 190.417 718.859H187.635V723.32ZM195.67 724.695C195.67 723.867 195.832 723.122 196.155 722.461C196.483 721.799 196.936 721.289 197.514 720.93C198.097 720.57 198.761 720.391 199.506 720.391C200.657 720.391 201.587 720.789 202.295 721.586C203.009 722.383 203.366 723.443 203.366 724.766V724.867C203.366 725.69 203.207 726.43 202.889 727.086C202.577 727.737 202.126 728.245 201.537 728.609C200.954 728.974 200.282 729.156 199.522 729.156C198.376 729.156 197.446 728.758 196.733 727.961C196.024 727.164 195.67 726.109 195.67 724.797V724.695ZM197.123 724.867C197.123 725.805 197.34 726.557 197.772 727.125C198.209 727.693 198.793 727.977 199.522 727.977C200.256 727.977 200.84 727.69 201.272 727.117C201.704 726.539 201.92 725.732 201.92 724.695C201.92 723.768 201.699 723.018 201.256 722.445C200.819 721.867 200.235 721.578 199.506 721.578C198.793 721.578 198.217 721.862 197.78 722.43C197.342 722.997 197.123 723.81 197.123 724.867ZM208.729 727.977C209.244 727.977 209.695 727.82 210.08 727.508C210.466 727.195 210.679 726.805 210.721 726.336H212.088C212.062 726.82 211.895 727.281 211.588 727.719C211.281 728.156 210.869 728.505 210.354 728.766C209.843 729.026 209.302 729.156 208.729 729.156C207.578 729.156 206.661 728.773 205.979 728.008C205.302 727.237 204.963 726.185 204.963 724.852V724.609C204.963 723.786 205.114 723.055 205.416 722.414C205.718 721.773 206.151 721.276 206.713 720.922C207.281 720.568 207.95 720.391 208.721 720.391C209.669 720.391 210.455 720.674 211.08 721.242C211.711 721.81 212.046 722.547 212.088 723.453H210.721C210.679 722.906 210.471 722.458 210.096 722.109C209.726 721.755 209.268 721.578 208.721 721.578C207.987 721.578 207.416 721.844 207.01 722.375C206.609 722.901 206.408 723.664 206.408 724.664V724.938C206.408 725.911 206.609 726.661 207.01 727.188C207.411 727.714 207.984 727.977 208.729 727.977ZM215.318 721.57C215.959 720.784 216.792 720.391 217.818 720.391C219.605 720.391 220.506 721.398 220.522 723.414V729H219.076V723.406C219.071 722.797 218.93 722.346 218.654 722.055C218.384 721.763 217.959 721.617 217.381 721.617C216.912 721.617 216.501 721.742 216.147 721.992C215.792 722.242 215.516 722.57 215.318 722.977V729H213.873V717H215.318V721.57ZM224.416 729H222.971V720.547H224.416V729ZM222.853 718.305C222.853 718.07 222.924 717.872 223.064 717.711C223.21 717.549 223.424 717.469 223.705 717.469C223.986 717.469 224.2 717.549 224.346 717.711C224.491 717.872 224.564 718.07 224.564 718.305C224.564 718.539 224.491 718.734 224.346 718.891C224.2 719.047 223.986 719.125 223.705 719.125C223.424 719.125 223.21 719.047 223.064 718.891C222.924 718.734 222.853 718.539 222.853 718.305ZM228.263 720.547L228.31 721.609C228.956 720.797 229.8 720.391 230.842 720.391C232.628 720.391 233.529 721.398 233.545 723.414V729H232.099V723.406C232.094 722.797 231.954 722.346 231.677 722.055C231.407 721.763 230.982 721.617 230.404 721.617C229.935 721.617 229.524 721.742 229.17 721.992C228.816 722.242 228.539 722.57 228.342 722.977V729H226.896V720.547H228.263ZM235.502 724.695C235.502 723.867 235.663 723.122 235.986 722.461C236.314 721.799 236.767 721.289 237.345 720.93C237.929 720.57 238.593 720.391 239.337 720.391C240.489 720.391 241.418 720.789 242.127 721.586C242.84 722.383 243.197 723.443 243.197 724.766V724.867C243.197 725.69 243.038 726.43 242.72 727.086C242.408 727.737 241.957 728.245 241.369 728.609C240.785 728.974 240.114 729.156 239.353 729.156C238.207 729.156 237.278 728.758 236.564 727.961C235.856 727.164 235.502 726.109 235.502 724.797V724.695ZM236.955 724.867C236.955 725.805 237.171 726.557 237.603 727.125C238.041 727.693 238.624 727.977 239.353 727.977C240.087 727.977 240.671 727.69 241.103 727.117C241.535 726.539 241.752 725.732 241.752 724.695C241.752 723.768 241.53 723.018 241.087 722.445C240.65 721.867 240.067 721.578 239.337 721.578C238.624 721.578 238.048 721.862 237.611 722.43C237.173 722.997 236.955 723.81 236.955 724.867ZM247.529 725.086L246.622 726.031V729H245.177V717H246.622V724.258L247.396 723.328L250.029 720.547H251.787L248.497 724.078L252.169 729H250.474L247.529 725.086Z" fill="black"/>
            </g>
            <g id="Group 34">
                <circle id="Ellipse 7" cx="247" cy="534" r="5" fill="#C4C4C4"/>
                <path id="Valdai" d="M187.162 540.008L190.412 530.625H192.053L187.834 542H186.506L182.295 530.625H183.928L187.162 540.008ZM198.377 542C198.294 541.833 198.226 541.536 198.174 541.109C197.502 541.807 196.7 542.156 195.768 542.156C194.934 542.156 194.25 541.922 193.713 541.453C193.182 540.979 192.916 540.38 192.916 539.656C192.916 538.776 193.25 538.094 193.916 537.609C194.588 537.12 195.531 536.875 196.744 536.875H198.151V536.211C198.151 535.706 198 535.305 197.697 535.008C197.395 534.706 196.95 534.555 196.362 534.555C195.846 534.555 195.414 534.685 195.065 534.945C194.716 535.206 194.541 535.521 194.541 535.891H193.088C193.088 535.469 193.237 535.062 193.533 534.672C193.836 534.276 194.242 533.964 194.752 533.734C195.268 533.505 195.833 533.391 196.447 533.391C197.421 533.391 198.184 533.635 198.737 534.125C199.289 534.609 199.575 535.279 199.596 536.133V540.023C199.596 540.799 199.695 541.417 199.893 541.875V542H198.377ZM195.979 540.898C196.432 540.898 196.862 540.781 197.268 540.547C197.674 540.312 197.968 540.008 198.151 539.633V537.898H197.018C195.247 537.898 194.362 538.417 194.362 539.453C194.362 539.906 194.513 540.26 194.815 540.516C195.117 540.771 195.505 540.898 195.979 540.898ZM203.592 542H202.147V530H203.592V542ZM205.721 537.703C205.721 536.406 206.028 535.365 206.643 534.578C207.257 533.786 208.062 533.391 209.057 533.391C210.046 533.391 210.83 533.729 211.408 534.406V530H212.853V542H211.525L211.455 541.094C210.877 541.802 210.072 542.156 209.041 542.156C208.062 542.156 207.262 541.755 206.643 540.953C206.028 540.151 205.721 539.104 205.721 537.812V537.703ZM207.166 537.867C207.166 538.826 207.364 539.576 207.76 540.117C208.156 540.659 208.702 540.93 209.4 540.93C210.317 540.93 210.986 540.518 211.408 539.695V535.812C210.976 535.016 210.312 534.617 209.416 534.617C208.708 534.617 208.156 534.891 207.76 535.438C207.364 535.984 207.166 536.794 207.166 537.867ZM220.482 542C220.399 541.833 220.331 541.536 220.279 541.109C219.607 541.807 218.805 542.156 217.873 542.156C217.039 542.156 216.355 541.922 215.818 541.453C215.287 540.979 215.021 540.38 215.021 539.656C215.021 538.776 215.355 538.094 216.021 537.609C216.693 537.12 217.636 536.875 218.849 536.875H220.256V536.211C220.256 535.706 220.105 535.305 219.802 535.008C219.5 534.706 219.055 534.555 218.467 534.555C217.951 534.555 217.519 534.685 217.17 534.945C216.821 535.206 216.646 535.521 216.646 535.891H215.193C215.193 535.469 215.342 535.062 215.638 534.672C215.941 534.276 216.347 533.964 216.857 533.734C217.373 533.505 217.938 533.391 218.552 533.391C219.526 533.391 220.289 533.635 220.842 534.125C221.394 534.609 221.68 535.279 221.701 536.133V540.023C221.701 540.799 221.8 541.417 221.998 541.875V542H220.482ZM218.084 540.898C218.537 540.898 218.967 540.781 219.373 540.547C219.779 540.312 220.073 540.008 220.256 539.633V537.898H219.123C217.352 537.898 216.467 538.417 216.467 539.453C216.467 539.906 216.618 540.26 216.92 540.516C217.222 540.771 217.61 540.898 218.084 540.898ZM225.697 542H224.252V533.547H225.697V542ZM224.134 531.305C224.134 531.07 224.205 530.872 224.345 530.711C224.491 530.549 224.705 530.469 224.986 530.469C225.267 530.469 225.481 530.549 225.627 530.711C225.772 530.872 225.845 531.07 225.845 531.305C225.845 531.539 225.772 531.734 225.627 531.891C225.481 532.047 225.267 532.125 224.986 532.125C224.705 532.125 224.491 532.047 224.345 531.891C224.205 531.734 224.134 531.539 224.134 531.305Z" fill="black"/>
            </g>
            <g id="Group 33">
                <circle id="Ellipse 6" cx="177" cy="303" r="5" fill="#C4C4C4"/>
                <path id="Veliky Novogorod" d="M38.1594 306.008L41.4094 296.625H43.05L38.8312 308H37.5031L33.2922 296.625H34.925L38.1594 306.008ZM47.6787 308.156C46.5329 308.156 45.6006 307.781 44.8819 307.031C44.1631 306.276 43.8037 305.268 43.8037 304.008V303.742C43.8037 302.904 43.9626 302.156 44.2803 301.5C44.6032 300.839 45.0511 300.323 45.6241 299.953C46.2022 299.578 46.8272 299.391 47.4991 299.391C48.598 299.391 49.4522 299.753 50.0616 300.477C50.6709 301.201 50.9756 302.237 50.9756 303.586V304.188H45.2491C45.2699 305.021 45.5121 305.695 45.9756 306.211C46.4444 306.721 47.0381 306.977 47.7569 306.977C48.2673 306.977 48.6996 306.872 49.0537 306.664C49.4079 306.456 49.7178 306.18 49.9834 305.836L50.8662 306.523C50.1579 307.612 49.0954 308.156 47.6787 308.156ZM47.4991 300.578C46.9157 300.578 46.4261 300.792 46.0303 301.219C45.6345 301.641 45.3897 302.234 45.2959 303H49.5303V302.891C49.4886 302.156 49.2907 301.589 48.9366 301.188C48.5824 300.781 48.1032 300.578 47.4991 300.578ZM54.3856 308H52.9403V296H54.3856V308ZM58.4362 308H56.9909V299.547H58.4362V308ZM56.8737 297.305C56.8737 297.07 56.9441 296.872 57.0847 296.711C57.2305 296.549 57.4441 296.469 57.7253 296.469C58.0066 296.469 58.2201 296.549 58.3659 296.711C58.5118 296.872 58.5847 297.07 58.5847 297.305C58.5847 297.539 58.5118 297.734 58.3659 297.891C58.2201 298.047 58.0066 298.125 57.7253 298.125C57.4441 298.125 57.2305 298.047 57.0847 297.891C56.9441 297.734 56.8737 297.539 56.8737 297.305ZM63.2759 304.086L62.3697 305.031V308H60.9244V296H62.3697V303.258L63.1431 302.328L65.7759 299.547H67.5337L64.2447 303.078L67.9166 308H66.2212L63.2759 304.086ZM71.9516 305.883L73.9203 299.547H75.4672L72.0687 309.305C71.5427 310.711 70.7068 311.414 69.5609 311.414L69.2875 311.391L68.7484 311.289V310.117L69.1391 310.148C69.6286 310.148 70.0089 310.049 70.2797 309.852C70.5557 309.654 70.7823 309.292 70.9594 308.766L71.2797 307.906L68.2641 299.547H69.8422L71.9516 305.883ZM90.0216 308H88.5137L82.7872 299.234V308H81.2794V296.625H82.7872L88.5294 305.43V296.625H90.0216V308ZM92.2363 303.695C92.2363 302.867 92.3977 302.122 92.7206 301.461C93.0488 300.799 93.5019 300.289 94.08 299.93C94.6633 299.57 95.3274 299.391 96.0722 299.391C97.2232 299.391 98.1529 299.789 98.8613 300.586C99.5748 301.383 99.9316 302.443 99.9316 303.766V303.867C99.9316 304.69 99.7727 305.43 99.455 306.086C99.1425 306.737 98.692 307.245 98.1034 307.609C97.5201 307.974 96.8482 308.156 96.0878 308.156C94.942 308.156 94.0123 307.758 93.2988 306.961C92.5904 306.164 92.2363 305.109 92.2363 303.797V303.695ZM93.6894 303.867C93.6894 304.805 93.9055 305.557 94.3378 306.125C94.7753 306.693 95.3586 306.977 96.0878 306.977C96.8222 306.977 97.4055 306.69 97.8378 306.117C98.2701 305.539 98.4863 304.732 98.4863 303.695C98.4863 302.768 98.2649 302.018 97.8222 301.445C97.3847 300.867 96.8014 300.578 96.0722 300.578C95.3586 300.578 94.7831 300.862 94.3456 301.43C93.9081 301.997 93.6894 302.81 93.6894 303.867ZM104.568 306.039L106.662 299.547H108.138L105.107 308H104.006L100.943 299.547H102.42L104.568 306.039ZM109.181 303.695C109.181 302.867 109.343 302.122 109.666 301.461C109.994 300.799 110.447 300.289 111.025 299.93C111.608 299.57 112.272 299.391 113.017 299.391C114.168 299.391 115.098 299.789 115.806 300.586C116.52 301.383 116.877 302.443 116.877 303.766V303.867C116.877 304.69 116.718 305.43 116.4 306.086C116.087 306.737 115.637 307.245 115.048 307.609C114.465 307.974 113.793 308.156 113.033 308.156C111.887 308.156 110.957 307.758 110.244 306.961C109.535 306.164 109.181 305.109 109.181 303.797V303.695ZM110.634 303.867C110.634 304.805 110.851 305.557 111.283 306.125C111.72 306.693 112.304 306.977 113.033 306.977C113.767 306.977 114.351 306.69 114.783 306.117C115.215 305.539 115.431 304.732 115.431 303.695C115.431 302.768 115.21 302.018 114.767 301.445C114.33 300.867 113.746 300.578 113.017 300.578C112.304 300.578 111.728 300.862 111.291 301.43C110.853 301.997 110.634 302.81 110.634 303.867ZM118.505 303.703C118.505 302.385 118.81 301.339 119.419 300.562C120.029 299.781 120.836 299.391 121.841 299.391C122.872 299.391 123.677 299.755 124.255 300.484L124.326 299.547H125.646V307.797C125.646 308.891 125.32 309.753 124.669 310.383C124.024 311.013 123.154 311.328 122.06 311.328C121.451 311.328 120.854 311.198 120.271 310.938C119.688 310.677 119.242 310.32 118.935 309.867L119.685 309C120.305 309.766 121.063 310.148 121.958 310.148C122.662 310.148 123.208 309.951 123.599 309.555C123.995 309.159 124.193 308.602 124.193 307.883V307.156C123.615 307.823 122.826 308.156 121.826 308.156C120.836 308.156 120.034 307.758 119.419 306.961C118.81 306.164 118.505 305.078 118.505 303.703ZM119.958 303.867C119.958 304.82 120.154 305.57 120.544 306.117C120.935 306.659 121.482 306.93 122.185 306.93C123.096 306.93 123.766 306.516 124.193 305.688V301.828C123.75 301.021 123.086 300.617 122.201 300.617C121.497 300.617 120.948 300.891 120.552 301.438C120.156 301.984 119.958 302.794 119.958 303.867ZM127.611 303.695C127.611 302.867 127.772 302.122 128.095 301.461C128.423 300.799 128.876 300.289 129.454 299.93C130.038 299.57 130.702 299.391 131.447 299.391C132.598 299.391 133.527 299.789 134.236 300.586C134.949 301.383 135.306 302.443 135.306 303.766V303.867C135.306 304.69 135.147 305.43 134.829 306.086C134.517 306.737 134.066 307.245 133.478 307.609C132.894 307.974 132.223 308.156 131.462 308.156C130.316 308.156 129.387 307.758 128.673 306.961C127.965 306.164 127.611 305.109 127.611 303.797V303.695ZM129.064 303.867C129.064 304.805 129.28 305.557 129.712 306.125C130.15 306.693 130.733 306.977 131.462 306.977C132.197 306.977 132.78 306.69 133.212 306.117C133.644 305.539 133.861 304.732 133.861 303.695C133.861 302.768 133.639 302.018 133.197 301.445C132.759 300.867 132.176 300.578 131.447 300.578C130.733 300.578 130.158 300.862 129.72 301.43C129.283 301.997 129.064 302.81 129.064 303.867ZM141.364 300.844C141.146 300.807 140.909 300.789 140.653 300.789C139.706 300.789 139.062 301.193 138.724 302V308H137.278V299.547H138.685L138.708 300.523C139.182 299.768 139.854 299.391 140.724 299.391C141.005 299.391 141.219 299.427 141.364 299.5V300.844ZM142.321 303.695C142.321 302.867 142.483 302.122 142.806 301.461C143.134 300.799 143.587 300.289 144.165 299.93C144.748 299.57 145.412 299.391 146.157 299.391C147.308 299.391 148.238 299.789 148.946 300.586C149.66 301.383 150.017 302.443 150.017 303.766V303.867C150.017 304.69 149.858 305.43 149.54 306.086C149.227 306.737 148.777 307.245 148.188 307.609C147.605 307.974 146.933 308.156 146.173 308.156C145.027 308.156 144.097 307.758 143.384 306.961C142.675 306.164 142.321 305.109 142.321 303.797V303.695ZM143.774 303.867C143.774 304.805 143.991 305.557 144.423 306.125C144.86 306.693 145.444 306.977 146.173 306.977C146.907 306.977 147.491 306.69 147.923 306.117C148.355 305.539 148.571 304.732 148.571 303.695C148.571 302.768 148.35 302.018 147.907 301.445C147.47 300.867 146.886 300.578 146.157 300.578C145.444 300.578 144.868 300.862 144.431 301.43C143.993 301.997 143.774 302.81 143.774 303.867ZM151.637 303.703C151.637 302.406 151.945 301.365 152.559 300.578C153.174 299.786 153.979 299.391 154.973 299.391C155.963 299.391 156.747 299.729 157.325 300.406V296H158.77V308H157.442L157.372 307.094C156.794 307.802 155.989 308.156 154.958 308.156C153.979 308.156 153.179 307.755 152.559 306.953C151.945 306.151 151.637 305.104 151.637 303.812V303.703ZM153.083 303.867C153.083 304.826 153.281 305.576 153.677 306.117C154.072 306.659 154.619 306.93 155.317 306.93C156.234 306.93 156.903 306.518 157.325 305.695V301.812C156.893 301.016 156.229 300.617 155.333 300.617C154.624 300.617 154.072 300.891 153.677 301.438C153.281 301.984 153.083 302.794 153.083 303.867Z" fill="black"/>
            </g>
            <g id="Group 32">
                <circle id="Ellipse 5" cx="292" cy="248" r="5" fill="#C4C4C4"/>
                <path id="Chudovo" d="M214.786 247.391C214.645 248.594 214.2 249.523 213.45 250.18C212.705 250.831 211.713 251.156 210.473 251.156C209.129 251.156 208.051 250.674 207.239 249.711C206.431 248.747 206.028 247.458 206.028 245.844V244.75C206.028 243.693 206.215 242.763 206.59 241.961C206.971 241.159 207.507 240.544 208.2 240.117C208.892 239.685 209.694 239.469 210.606 239.469C211.814 239.469 212.783 239.807 213.512 240.484C214.241 241.156 214.666 242.089 214.786 243.281H213.278C213.148 242.375 212.864 241.719 212.426 241.312C211.994 240.906 211.387 240.703 210.606 240.703C209.648 240.703 208.895 241.057 208.348 241.766C207.806 242.474 207.536 243.482 207.536 244.789V245.891C207.536 247.125 207.793 248.107 208.309 248.836C208.825 249.565 209.546 249.93 210.473 249.93C211.306 249.93 211.944 249.742 212.387 249.367C212.835 248.987 213.132 248.328 213.278 247.391H214.786ZM218.219 243.57C218.86 242.784 219.693 242.391 220.719 242.391C222.506 242.391 223.407 243.398 223.422 245.414V251H221.977V245.406C221.972 244.797 221.831 244.346 221.555 244.055C221.284 243.763 220.86 243.617 220.282 243.617C219.813 243.617 219.401 243.742 219.047 243.992C218.693 244.242 218.417 244.57 218.219 244.977V251H216.774V239H218.219V243.57ZM230.965 250.164C230.403 250.826 229.577 251.156 228.488 251.156C227.587 251.156 226.9 250.896 226.426 250.375C225.957 249.849 225.72 249.073 225.715 248.047V242.547H227.16V248.008C227.16 249.289 227.681 249.93 228.723 249.93C229.827 249.93 230.561 249.518 230.926 248.695V242.547H232.371V251H230.996L230.965 250.164ZM234.383 246.703C234.383 245.406 234.69 244.365 235.305 243.578C235.919 242.786 236.724 242.391 237.719 242.391C238.708 242.391 239.492 242.729 240.07 243.406V239H241.516V251H240.188L240.117 250.094C239.539 250.802 238.734 251.156 237.703 251.156C236.724 251.156 235.924 250.755 235.305 249.953C234.69 249.151 234.383 248.104 234.383 246.812V246.703ZM235.828 246.867C235.828 247.826 236.026 248.576 236.422 249.117C236.818 249.659 237.365 249.93 238.062 249.93C238.979 249.93 239.648 249.518 240.07 248.695V244.812C239.638 244.016 238.974 243.617 238.078 243.617C237.37 243.617 236.818 243.891 236.422 244.438C236.026 244.984 235.828 245.794 235.828 246.867ZM243.543 246.695C243.543 245.867 243.704 245.122 244.027 244.461C244.355 243.799 244.808 243.289 245.387 242.93C245.97 242.57 246.634 242.391 247.379 242.391C248.53 242.391 249.459 242.789 250.168 243.586C250.881 244.383 251.238 245.443 251.238 246.766V246.867C251.238 247.69 251.079 248.43 250.762 249.086C250.449 249.737 249.999 250.245 249.41 250.609C248.827 250.974 248.155 251.156 247.394 251.156C246.249 251.156 245.319 250.758 244.605 249.961C243.897 249.164 243.543 248.109 243.543 246.797V246.695ZM244.996 246.867C244.996 247.805 245.212 248.557 245.644 249.125C246.082 249.693 246.665 249.977 247.394 249.977C248.129 249.977 248.712 249.69 249.144 249.117C249.577 248.539 249.793 247.732 249.793 246.695C249.793 245.768 249.571 245.018 249.129 244.445C248.691 243.867 248.108 243.578 247.379 243.578C246.665 243.578 246.09 243.862 245.652 244.43C245.215 244.997 244.996 245.81 244.996 246.867ZM255.875 249.039L257.968 242.547H259.445L256.414 251H255.312L252.25 242.547H253.726L255.875 249.039ZM260.488 246.695C260.488 245.867 260.649 245.122 260.972 244.461C261.3 243.799 261.753 243.289 262.332 242.93C262.915 242.57 263.579 242.391 264.324 242.391C265.475 242.391 266.404 242.789 267.113 243.586C267.826 244.383 268.183 245.443 268.183 246.766V246.867C268.183 247.69 268.024 248.43 267.707 249.086C267.394 249.737 266.944 250.245 266.355 250.609C265.772 250.974 265.1 251.156 264.339 251.156C263.194 251.156 262.264 250.758 261.55 249.961C260.842 249.164 260.488 248.109 260.488 246.797V246.695ZM261.941 246.867C261.941 247.805 262.157 248.557 262.589 249.125C263.027 249.693 263.61 249.977 264.339 249.977C265.074 249.977 265.657 249.69 266.089 249.117C266.522 248.539 266.738 247.732 266.738 246.695C266.738 245.768 266.516 245.018 266.074 244.445C265.636 243.867 265.053 243.578 264.324 243.578C263.61 243.578 263.035 243.862 262.597 244.43C262.16 244.997 261.941 245.81 261.941 246.867Z" fill="black"/>
            </g>
            <g id="Group 31">
                <circle id="Ellipse 4" cx="295" cy="182" r="5" fill="#C4C4C4"/>
                <path id="Lyuban" d="M222.186 185.773H227.577V187H220.678V175.625H222.186V185.773ZM230.94 184.883L232.908 178.547H234.455L231.057 188.305C230.531 189.711 229.695 190.414 228.549 190.414L228.276 190.391L227.737 190.289V189.117L228.127 189.148C228.617 189.148 228.997 189.049 229.268 188.852C229.544 188.654 229.77 188.292 229.948 187.766L230.268 186.906L227.252 178.547H228.83L230.94 184.883ZM241.131 186.164C240.568 186.826 239.743 187.156 238.654 187.156C237.753 187.156 237.066 186.896 236.592 186.375C236.123 185.849 235.886 185.073 235.881 184.047V178.547H237.326V184.008C237.326 185.289 237.847 185.93 238.889 185.93C239.993 185.93 240.727 185.518 241.092 184.695V178.547H242.537V187H241.162L241.131 186.164ZM252.057 182.867C252.057 184.159 251.76 185.198 251.166 185.984C250.572 186.766 249.775 187.156 248.775 187.156C247.708 187.156 246.882 186.779 246.299 186.023L246.228 187H244.9V175H246.346V179.477C246.929 178.753 247.734 178.391 248.76 178.391C249.786 178.391 250.59 178.779 251.174 179.555C251.762 180.331 252.057 181.393 252.057 182.742V182.867ZM250.611 182.703C250.611 181.719 250.421 180.958 250.041 180.422C249.661 179.885 249.114 179.617 248.4 179.617C247.447 179.617 246.762 180.06 246.346 180.945V184.602C246.788 185.487 247.478 185.93 248.416 185.93C249.109 185.93 249.648 185.661 250.033 185.125C250.419 184.589 250.611 183.781 250.611 182.703ZM259.263 187C259.18 186.833 259.112 186.536 259.06 186.109C258.388 186.807 257.586 187.156 256.654 187.156C255.821 187.156 255.136 186.922 254.599 186.453C254.068 185.979 253.802 185.38 253.802 184.656C253.802 183.776 254.136 183.094 254.802 182.609C255.474 182.12 256.417 181.875 257.631 181.875H259.037V181.211C259.037 180.706 258.886 180.305 258.584 180.008C258.282 179.706 257.836 179.555 257.248 179.555C256.732 179.555 256.3 179.685 255.951 179.945C255.602 180.206 255.427 180.521 255.427 180.891H253.974C253.974 180.469 254.123 180.062 254.42 179.672C254.722 179.276 255.128 178.964 255.638 178.734C256.154 178.505 256.719 178.391 257.334 178.391C258.308 178.391 259.071 178.635 259.623 179.125C260.175 179.609 260.461 180.279 260.482 181.133V185.023C260.482 185.799 260.581 186.417 260.779 186.875V187H259.263ZM256.865 185.898C257.318 185.898 257.748 185.781 258.154 185.547C258.56 185.312 258.855 185.008 259.037 184.633V182.898H257.904C256.133 182.898 255.248 183.417 255.248 184.453C255.248 184.906 255.399 185.26 255.701 185.516C256.003 185.771 256.391 185.898 256.865 185.898ZM264.275 178.547L264.322 179.609C264.968 178.797 265.811 178.391 266.853 178.391C268.64 178.391 269.541 179.398 269.556 181.414V187H268.111V181.406C268.106 180.797 267.965 180.346 267.689 180.055C267.418 179.763 266.994 179.617 266.416 179.617C265.947 179.617 265.535 179.742 265.181 179.992C264.827 180.242 264.551 180.57 264.353 180.977V187H262.908V178.547H264.275Z" fill="black"/>
            </g>
            <g id="Group 30">
                <circle id="Ellipse 3" cx="313" cy="33" r="5" fill="#C4C4C4"/>
                <path id="St. Petersburg" d="M191.21 35.9297C189.924 35.5599 188.986 35.1068 188.397 34.5703C187.814 34.0286 187.522 33.362 187.522 32.5703C187.522 31.6745 187.879 30.9349 188.593 30.3516C189.312 29.763 190.244 29.4688 191.39 29.4688C192.171 29.4688 192.866 29.6198 193.476 29.9219C194.09 30.224 194.564 30.6406 194.897 31.1719C195.236 31.7031 195.405 32.2839 195.405 32.9141H193.897C193.897 32.2266 193.679 31.6875 193.241 31.2969C192.804 30.901 192.187 30.7031 191.39 30.7031C190.65 30.7031 190.072 30.8672 189.655 31.1953C189.244 31.5182 189.038 31.9688 189.038 32.5469C189.038 33.0104 189.233 33.4036 189.624 33.7266C190.02 34.0443 190.689 34.3359 191.632 34.6016C192.58 34.8672 193.319 35.1615 193.851 35.4844C194.387 35.8021 194.783 36.1745 195.038 36.6016C195.299 37.0286 195.429 37.5312 195.429 38.1094C195.429 39.0312 195.069 39.7708 194.351 40.3281C193.632 40.8802 192.671 41.1562 191.468 41.1562C190.687 41.1562 189.957 41.0078 189.28 40.7109C188.603 40.4089 188.08 39.9974 187.71 39.4766C187.345 38.9557 187.163 38.3646 187.163 37.7031H188.671C188.671 38.3906 188.924 38.9349 189.429 39.3359C189.939 39.7318 190.619 39.9297 191.468 39.9297C192.259 39.9297 192.866 39.7682 193.288 39.4453C193.71 39.1224 193.921 38.6823 193.921 38.125C193.921 37.5677 193.726 37.138 193.335 36.8359C192.944 36.5286 192.236 36.2266 191.21 35.9297ZM199.253 30.5V32.5469H200.831V33.6641H199.253V38.9062C199.253 39.2448 199.323 39.5 199.464 39.6719C199.604 39.8385 199.844 39.9219 200.182 39.9219C200.349 39.9219 200.578 39.8906 200.87 39.8281V41C200.49 41.1042 200.12 41.1562 199.761 41.1562C199.115 41.1562 198.628 40.9609 198.3 40.5703C197.972 40.1797 197.807 39.625 197.807 38.9062V33.6641H196.268V32.5469H197.807V30.5H199.253ZM202.717 40.2422C202.717 39.9922 202.79 39.7839 202.936 39.6172C203.087 39.4505 203.311 39.3672 203.608 39.3672C203.905 39.3672 204.129 39.4505 204.28 39.6172C204.436 39.7839 204.514 39.9922 204.514 40.2422C204.514 40.4818 204.436 40.6823 204.28 40.8438C204.129 41.0052 203.905 41.0859 203.608 41.0859C203.311 41.0859 203.087 41.0052 202.936 40.8438C202.79 40.6823 202.717 40.4818 202.717 40.2422ZM212.92 36.5469V41H211.42V29.625H215.616C216.86 29.625 217.834 29.9427 218.537 30.5781C219.246 31.2135 219.6 32.0547 219.6 33.1016C219.6 34.2057 219.254 35.0573 218.561 35.6562C217.873 36.25 216.886 36.5469 215.6 36.5469H212.92ZM212.92 35.3203H215.616C216.418 35.3203 217.032 35.1328 217.459 34.7578C217.886 34.3776 218.1 33.8307 218.1 33.1172C218.1 32.4401 217.886 31.8984 217.459 31.4922C217.032 31.0859 216.446 30.875 215.702 30.8594H212.92V35.3203ZM224.846 41.1562C223.7 41.1562 222.768 40.7812 222.049 40.0312C221.33 39.276 220.971 38.2682 220.971 37.0078V36.7422C220.971 35.9036 221.13 35.1562 221.447 34.5C221.77 33.8385 222.218 33.3229 222.791 32.9531C223.369 32.5781 223.994 32.3906 224.666 32.3906C225.765 32.3906 226.619 32.7526 227.229 33.4766C227.838 34.2005 228.143 35.237 228.143 36.5859V37.1875H222.416C222.437 38.0208 222.679 38.6953 223.143 39.2109C223.612 39.7214 224.205 39.9766 224.924 39.9766C225.434 39.9766 225.867 39.8724 226.221 39.6641C226.575 39.4557 226.885 39.1797 227.151 38.8359L228.033 39.5234C227.325 40.612 226.263 41.1562 224.846 41.1562ZM224.666 33.5781C224.083 33.5781 223.593 33.7917 223.197 34.2188C222.802 34.6406 222.557 35.2344 222.463 36H226.697V35.8906C226.656 35.1562 226.458 34.5885 226.104 34.1875C225.75 33.7812 225.27 33.5781 224.666 33.5781ZM231.943 30.5V32.5469H233.522V33.6641H231.943V38.9062C231.943 39.2448 232.014 39.5 232.154 39.6719C232.295 39.8385 232.535 39.9219 232.873 39.9219C233.04 39.9219 233.269 39.8906 233.561 39.8281V41C233.18 41.1042 232.811 41.1562 232.451 41.1562C231.805 41.1562 231.318 40.9609 230.99 40.5703C230.662 40.1797 230.498 39.625 230.498 38.9062V33.6641H228.959V32.5469H230.498V30.5H231.943ZM238.885 41.1562C237.739 41.1562 236.807 40.7812 236.088 40.0312C235.369 39.276 235.01 38.2682 235.01 37.0078V36.7422C235.01 35.9036 235.169 35.1562 235.486 34.5C235.809 33.8385 236.257 33.3229 236.83 32.9531C237.408 32.5781 238.033 32.3906 238.705 32.3906C239.804 32.3906 240.658 32.7526 241.267 33.4766C241.877 34.2005 242.182 35.237 242.182 36.5859V37.1875H236.455C236.476 38.0208 236.718 38.6953 237.182 39.2109C237.65 39.7214 238.244 39.9766 238.963 39.9766C239.473 39.9766 239.906 39.8724 240.26 39.6641C240.614 39.4557 240.924 39.1797 241.189 38.8359L242.072 39.5234C241.364 40.612 240.301 41.1562 238.885 41.1562ZM238.705 33.5781C238.122 33.5781 237.632 33.7917 237.236 34.2188C236.84 34.6406 236.596 35.2344 236.502 36H240.736V35.8906C240.695 35.1562 240.497 34.5885 240.142 34.1875C239.788 33.7812 239.309 33.5781 238.705 33.5781ZM248.107 33.8438C247.888 33.8073 247.651 33.7891 247.396 33.7891C246.448 33.7891 245.805 34.1927 245.467 35V41H244.021V32.5469H245.427L245.451 33.5234C245.925 32.7682 246.597 32.3906 247.467 32.3906C247.748 32.3906 247.961 32.4271 248.107 32.5V33.8438ZM254.525 38.7578C254.525 38.3672 254.377 38.0651 254.08 37.8516C253.788 37.6328 253.275 37.4453 252.541 37.2891C251.811 37.1328 251.231 36.9453 250.798 36.7266C250.371 36.5078 250.054 36.2474 249.845 35.9453C249.642 35.6432 249.541 35.2839 249.541 34.8672C249.541 34.1745 249.832 33.5885 250.416 33.1094C251.004 32.6302 251.754 32.3906 252.666 32.3906C253.624 32.3906 254.4 32.638 254.994 33.1328C255.593 33.6276 255.892 34.2604 255.892 35.0312H254.439C254.439 34.6354 254.27 34.2943 253.931 34.0078C253.598 33.7214 253.176 33.5781 252.666 33.5781C252.14 33.5781 251.728 33.6927 251.431 33.9219C251.134 34.151 250.986 34.4505 250.986 34.8203C250.986 35.1693 251.124 35.4323 251.4 35.6094C251.676 35.7865 252.173 35.9557 252.892 36.1172C253.616 36.2786 254.202 36.4714 254.65 36.6953C255.098 36.9193 255.429 37.1901 255.642 37.5078C255.861 37.8203 255.97 38.2031 255.97 38.6562C255.97 39.4115 255.668 40.0182 255.064 40.4766C254.46 40.9297 253.676 41.1562 252.712 41.1562C252.035 41.1562 251.436 41.0365 250.916 40.7969C250.395 40.5573 249.986 40.224 249.689 39.7969C249.397 39.3646 249.252 38.8984 249.252 38.3984H250.697C250.723 38.8828 250.916 39.2682 251.275 39.5547C251.64 39.8359 252.119 39.9766 252.712 39.9766C253.259 39.9766 253.697 39.8672 254.025 39.6484C254.358 39.4245 254.525 39.1276 254.525 38.7578ZM265.169 36.8672C265.169 38.1589 264.872 39.1979 264.279 39.9844C263.685 40.7656 262.888 41.1562 261.888 41.1562C260.82 41.1562 259.995 40.7786 259.412 40.0234L259.341 41H258.013V29H259.458V33.4766C260.042 32.7526 260.846 32.3906 261.872 32.3906C262.899 32.3906 263.703 32.7786 264.287 33.5547C264.875 34.3307 265.169 35.3932 265.169 36.7422V36.8672ZM263.724 36.7031C263.724 35.7188 263.534 34.9583 263.154 34.4219C262.774 33.8854 262.227 33.6172 261.513 33.6172C260.56 33.6172 259.875 34.0599 259.458 34.9453V38.6016C259.901 39.487 260.591 39.9297 261.529 39.9297C262.221 39.9297 262.761 39.6615 263.146 39.125C263.531 38.5885 263.724 37.7812 263.724 36.7031ZM272.376 40.1641C271.814 40.8255 270.988 41.1562 269.9 41.1562C268.999 41.1562 268.311 40.8958 267.837 40.375C267.368 39.849 267.131 39.0729 267.126 38.0469V32.5469H268.572V38.0078C268.572 39.2891 269.092 39.9297 270.134 39.9297C271.238 39.9297 271.973 39.5182 272.337 38.6953V32.5469H273.783V41H272.408L272.376 40.1641ZM280.232 33.8438C280.013 33.8073 279.776 33.7891 279.521 33.7891C278.573 33.7891 277.929 34.1927 277.591 35V41H276.146V32.5469H277.552L277.575 33.5234C278.049 32.7682 278.721 32.3906 279.591 32.3906C279.872 32.3906 280.086 32.4271 280.232 32.5V33.8438ZM281.228 36.7031C281.228 35.3854 281.532 34.3385 282.142 33.5625C282.751 32.7812 283.558 32.3906 284.563 32.3906C285.595 32.3906 286.399 32.7552 286.978 33.4844L287.048 32.5469H288.368V40.7969C288.368 41.8906 288.043 42.7526 287.392 43.3828C286.746 44.013 285.876 44.3281 284.782 44.3281C284.173 44.3281 283.576 44.1979 282.993 43.9375C282.41 43.6771 281.964 43.3203 281.657 42.8672L282.407 42C283.027 42.7656 283.785 43.1484 284.681 43.1484C285.384 43.1484 285.931 42.9505 286.321 42.5547C286.717 42.1589 286.915 41.6016 286.915 40.8828V40.1562C286.337 40.8229 285.548 41.1562 284.548 41.1562C283.558 41.1562 282.756 40.7578 282.142 39.9609C281.532 39.1641 281.228 38.0781 281.228 36.7031ZM282.681 36.8672C282.681 37.8203 282.876 38.5703 283.267 39.1172C283.657 39.6589 284.204 39.9297 284.907 39.9297C285.819 39.9297 286.488 39.5156 286.915 38.6875V34.8281C286.472 34.0208 285.808 33.6172 284.923 33.6172C284.22 33.6172 283.67 33.8906 283.274 34.4375C282.879 34.9844 282.681 35.7943 282.681 36.8672Z" fill="black"/>
            </g>
        </g>
    </g>
</svg>
