<svg id="svg-el" height="400" viewBox="0 0 900 2300" fill="none" xmlns="http://www.w3.org/2000/svg">
<g id="canvas">
<rect id="map" width="900" height="2300" fill="#71D4FF"/>
<g id="locations">
<circle id="point-1" cx="127.5" cy="61.5" r="12.5" transform="rotate(-90 127.5 61.5)" fill="#FF0000"/>
<circle id="point-3" cx="450.5" cy="850.265" r="12.5" transform="rotate(-90 450.5 850.265)" fill="#FF0000"/>
<circle id="point-4" cx="670.5" cy="1796.5" r="12.5" transform="rotate(-90 670.5 1796.5)" fill="#FF5400"/>
<circle id="point-5" cx="462.5" cy="2152.5" r="12.5" transform="rotate(-90 462.5 2152.5)" fill="#FF0000"/>
<circle id="point-6" cx="394.5" cy="2236.5" r="12.5" transform="rotate(-90 394.5 2236.5)" fill="#FF0000"/>
<circle id="point-2" cx="392.5" cy="516.5" r="12.5" transform="rotate(-90 392.5 516.5)" fill="#FF0000"/>
</g>
<g id="trail-path">
<path id="trail-path" d="M127 62L139.491 66.9748L143.435 72.4471L153.297 74.4371L159.213 82.3968L174.005 88.3666L177.621 93.3415L187.153 101.301L197.014 141.1H205.232L233.83 166.969L252.237 193.833L255.524 210.25L269.987 242.089L284.122 285.868L310.747 360.49L330.14 389.842L340.659 403.771L349.534 415.214L355.122 433.123L360.053 454.515L370.243 481.876L376.488 500.283L385.363 510.731L394.238 516.7L407.058 522.67L421.192 524.66L431.053 527.147L438.285 537.097L444.202 542.57L451.433 551.027L458.007 556.997H464.253L470.827 560.976L475.429 566.946L478.387 573.414V582.866L475.429 640.076L464.253 670.423L462.28 681.368L464.253 705.744V739.573L458.007 751.015L454.063 758.478L446.174 797.281L449.461 842.552L454.063 864.939L456.692 902.25L471.484 941.552L496.466 968.913L511.915 986.325L517.503 998.265L528.022 1012.69L541.827 1040.55L548.401 1051.99L553.989 1066.92L565.165 1081.84L571.411 1083.83H576.67L583.244 1086.82L604.281 1111.69L650.629 1197.76L666.407 1265.91L670.68 1291.78L669.037 1315.66L672.324 1335.56V1344.02L686.129 1390.78L690.074 1402.22L693.361 1416.65L699.278 1429.58L704.208 1434.56L707.495 1444.51L709.796 1463.91V1477.34V1490.77L707.495 1502.22V1528.09L709.796 1538.03L712.755 1545.99L715.384 1552.46L716.699 1557.44V1580.32V1590.77L719 1599.72V1627.58L716.699 1639.52L715.384 1659.42L713.741 1668.38L694.676 1765.88L690.731 1778.32L683.828 1788.27L674.953 1794.24L667.393 1802.2L663.777 1810.16L658.847 1822.6L656.546 1833.04L646.685 1854.43L645.041 1861.4V1874.83V1883.29L640.439 1892.24L635.18 1901.7L621.703 1949.45L546.429 2038.01L511.915 2102.68L479.044 2127.06L472.799 2135.02L468.526 2146.96L462.938 2153.42H457.35H449.79H441.572L431.711 2160.39L427.109 2166.85L422.178 2170.83L417.576 2176.8L413.961 2183.77L408.044 2188.25L405.743 2200.68L403.113 2213.12L392.595 2237" stroke="black" stroke-width="2"/>
</g>
<g id="camera-path">
<path id="camera-path" d="M127 62L139.491 66.9748L143.435 72.4471L153.297 74.4371L159.213 82.3968L174.005 88.3666L177.621 93.3415L187.153 101.301L197.014 141.1H205.232L233.83 166.969L252.237 193.833L255.524 210.25L269.987 242.089L284.122 285.868L310.747 360.49L330.14 389.842L340.659 403.771L349.534 415.214L355.122 433.123L360.053 454.515L370.243 481.876L376.488 500.283L385.363 510.731L394.238 516.7L407.058 522.67L421.192 524.66L431.053 527.147L438.285 537.097L444.202 542.57L451.433 551.027L458.007 556.997H464.253L470.827 560.976L475.429 566.946L478.387 573.414V582.866L475.429 640.076L464.253 670.423L462.28 681.368L464.253 705.744V739.573L458.007 751.015L454.063 758.478L446.174 797.281L449.461 842.552L454.063 864.939L456.692 902.25L471.484 941.552L496.466 968.913L511.915 986.325L517.503 998.265L528.022 1012.69L541.827 1040.55L548.401 1051.99L553.989 1066.92L565.165 1081.84L571.411 1083.83H576.67L583.244 1086.82L604.281 1111.69L650.629 1197.76L666.407 1265.91L670.68 1291.78L669.037 1315.66L672.324 1335.56V1344.02L686.129 1390.78L690.074 1402.22L693.361 1416.65L699.278 1429.58L704.208 1434.56L707.495 1444.51L709.796 1463.91V1477.34V1490.77L707.495 1502.22V1528.09L709.796 1538.03L712.755 1545.99L715.384 1552.46L716.699 1557.44V1580.32V1590.77L719 1599.72V1627.58L716.699 1639.52L715.384 1659.42L713.741 1668.38L694.676 1765.88L690.731 1778.32L683.828 1788.27L674.953 1794.24L667.393 1802.2L663.777 1810.16L658.847 1822.6L656.546 1833.04L646.685 1854.43L645.041 1861.4V1874.83V1883.29L640.439 1892.24L635.18 1901.7L621.703 1949.45L546.429 2038.01L511.915 2102.68L479.044 2127.06L472.799 2135.02L468.526 2146.96L462.938 2153.42H457.35H449.79H441.572L431.711 2160.39L427.109 2166.85L422.178 2170.83L417.576 2176.8L413.961 2183.77L408.044 2188.25L405.743 2200.68L403.113 2213.12L392.595 2237" stroke="black" stroke-width="2"/>
</g>
</g>
</svg>
